<svg xmlns="http://www.w3.org/2000/svg" viewBox="0 0 128 64" shape-rendering="crispEdges">
  <rect x="0" y="0" width="16" height="16" fill="#f7f2e8"/>
  <rect x="16" y="0" width="16" height="16" fill="#ebe2d1"/>
  <rect x="32" y="0" width="16" height="16" fill="#d7c4a3"/>
  <rect x="48" y="0" width="16" height="16" fill="#c8b089"/>
  <rect x="64" y="0" width="16" height="16" fill="#6d5841"/>
  <rect x="80" y="0" width="16" height="16" fill="#c7d7e8"/>
  <rect x="96" y="0" width="16" height="16" fill="#9fb4cc"/>
  <rect x="112" y="0" width="16" height="16" fill="#f3c969"/>

  <rect x="0" y="16" width="16" height="16" fill="#6d5841"/>
  <rect x="2" y="18" width="12" height="12" fill="#c7d7e8"/>
  <rect x="7" y="18" width="2" height="12" fill="#6d5841"/>
  <rect x="2" y="23" width="12" height="2" fill="#6d5841"/>

  <rect x="16" y="16" width="16" height="16" fill="#6d5841"/>
  <rect x="2" y="2" width="12" height="12" transform="translate(16 16)" fill="#f3c969"/>

  <rect x="32" y="16" width="16" height="16" fill="#b4875f"/>
  <rect x="32" y="28" width="16" height="4" fill="#8e6642"/>

  <rect x="48" y="16" width="16" height="16" fill="#d2bfab"/>
  <rect x="50" y="18" width="12" height="5" fill="#f5eee5"/>

  <rect x="64" y="16" width="16" height="16" fill="#8e6642"/>
  <rect x="80" y="16" width="16" height="16" fill="#6d5841"/>
  <rect x="82" y="20" width="12" height="2" fill="#d8c39a"/>
  <rect x="82" y="24" width="10" height="2" fill="#d8c39a"/>

  <rect x="96" y="16" width="16" height="16" fill="#f7d75c"/>
  <rect x="98" y="20" width="10" height="2" fill="#d2b544"/>
  <rect x="98" y="24" width="8" height="2" fill="#d2b544"/>

  <rect x="112" y="16" width="16" height="16" fill="#30343b"/>
  <rect x="114" y="22" width="4" height="4" fill="#d8c39a"/>
  <rect x="122" y="22" width="4" height="4" fill="#d8c39a"/>
</svg>
