<svg xmlns="http://www.w3.org/2000/svg" viewBox="0 0 320 180" shape-rendering="crispEdges">
  <rect width="320" height="180" fill="#f7f2e8"/>
  <rect y="122" width="320" height="58" fill="#d7c4a3"/>
  <rect y="142" width="320" height="4" fill="#c8b089"/>
  <rect x="18" y="18" width="72" height="52" fill="#6d5841"/>
  <rect x="22" y="22" width="64" height="44" fill="#c7d7e8"/>
  <rect x="22" y="48" width="64" height="8" fill="#9fb4cc"/>
  <rect x="52" y="22" width="4" height="44" fill="#6d5841"/>
  <rect x="22" y="42" width="64" height="4" fill="#6d5841"/>
  <rect x="248" y="20" width="34" height="50" fill="#6d5841"/>
  <rect x="252" y="24" width="26" height="42" fill="#f3c969"/>
  <rect x="34" y="116" width="74" height="34" fill="#d2bfab"/>
  <rect x="42" y="124" width="54" height="12" fill="#f5eee5"/>
  <rect x="26" y="72" width="44" height="12" fill="#8e6642"/>
  <rect x="32" y="92" width="38" height="10" fill="#8e6642"/>
  <rect x="184" y="96" width="122" height="14" fill="#b4875f"/>
  <rect x="190" y="110" width="110" height="22" fill="#8e6642"/>
  <rect x="204" y="132" width="6" height="28" fill="#6d5841"/>
  <rect x="274" y="132" width="6" height="28" fill="#6d5841"/>
  <rect x="160" y="26" width="26" height="12" fill="#ebe2d1"/>
  <rect x="192" y="26" width="26" height="12" fill="#ebe2d1"/>
  <rect x="224" y="26" width="26" height="12" fill="#ebe2d1"/>
</svg>
